name rise31.4854peak64.571fall78.6902.mot
datacolumns 19
datarows 11
range 3.24832700000000 3.26500400000000
endheader
time	ground_force1_vx	ground_force1_vy	ground_force1_vz	ground_force1_px	ground_force1_py	ground_force1_pz	ground_force2_vx	ground_force2_vy	ground_force2_vz	ground_force2_px	ground_force2_py	ground_force2_pz	ground_torque1_x	ground_torque1_y	ground_torque1_z	ground_torque2_x	ground_torque2_y	ground_torque2_z	
3.24832700000000	-59.97256700000000	799.88852699999995	56.49386500000000	0.07029400000000	0.00000000000000	0.10805400000000	-10.92954000000000	75.50587899999999	15.87202800000000	0.35500300000000	0.00000000000000	-0.07449600000000	0.00000000000000	19.66407900000000	0.00000000000000	0.00000000000000	9.95823500000000	0.00000000000000	
3.25000000000000	-59.95666200000000	796.67731500000002	56.08246300000000	0.07007600000000	0.00000000000000	0.10806800000000	-10.78290000000000	80.03141599999999	16.29039500000000	0.35745700000000	0.00000000000000	-0.07484200000000	0.00000000000000	19.55776600000000	0.00000000000000	0.00000000000000	10.33571400000000	0.00000000000000	
3.25165300000000	-59.94552600000000	793.36496999999997	55.64771600000000	0.06986400000000	0.00000000000000	0.10807700000000	-10.51815100000000	84.39037999999999	16.60325200000000	0.35968800000000	0.00000000000000	-0.07518800000000	0.00000000000000	19.45187600000000	0.00000000000000	0.00000000000000	10.65347300000000	0.00000000000000	
3.25331900000000	-59.94008800000000	789.95259099999998	55.19004500000000	0.06965700000000	0.00000000000000	0.10808100000000	-10.15277200000000	88.63546100000001	16.82637800000000	0.36171000000000	0.00000000000000	-0.07553500000000	0.00000000000000	19.34655300000000	0.00000000000000	0.00000000000000	10.91983300000000	0.00000000000000	
3.25500400000000	-59.94124600000000	786.44124299999999	54.70989600000000	0.06945500000000	0.00000000000000	0.10808100000000	-9.70426500000000	92.82226900000001	16.97599700000000	0.36354000000000	0.00000000000000	-0.07588400000000	0.00000000000000	19.24193100000000	0.00000000000000	0.00000000000000	11.14366200000000	0.00000000000000	
3.25665500000000	-59.94985300000000	782.83194800000001	54.20774000000000	0.06925600000000	0.00000000000000	0.10807500000000	-9.18898100000000	97.00496099999999	17.06752500000000	0.36519100000000	0.00000000000000	-0.07623500000000	0.00000000000000	19.13813700000000	0.00000000000000	0.00000000000000	11.33359900000000	0.00000000000000	
3.25832500000000	-59.96672200000000	779.12568499999998	53.68406700000000	0.06906000000000	0.00000000000000	0.10806500000000	-8.62123200000000	101.23271500000000	17.11460300000000	0.36667400000000	0.00000000000000	-0.07658800000000	0.00000000000000	19.03528600000000	0.00000000000000	0.00000000000000	11.49742800000000	0.00000000000000	
3.26001200000000	-59.99261300000000	775.32337900000005	53.13938900000000	0.06886400000000	0.00000000000000	0.10805100000000	-8.01271000000000	105.54716999999999	17.12841500000000	0.36800300000000	0.00000000000000	-0.07694200000000	0.00000000000000	18.93348400000000	0.00000000000000	0.00000000000000	11.64163500000000	0.00000000000000	
3.26165800000000	-60.02823200000000	771.42589899999996	52.57423100000000	0.06866900000000	0.00000000000000	0.10803100000000	-7.37219900000000	109.98085700000000	17.11732300000000	0.36918600000000	0.00000000000000	-0.07729900000000	0.00000000000000	18.83282500000000	0.00000000000000	0.00000000000000	11.77113800000000	0.00000000000000	
3.26332300000000	-60.07422500000000	767.43405299999995	51.98913600000000	0.06847300000000	0.00000000000000	0.10800500000000	-6.70556000000000	114.55656999999999	17.08676700000000	0.37023500000000	0.00000000000000	-0.07765900000000	0.00000000000000	18.73339300000000	0.00000000000000	0.00000000000000	11.88918900000000	0.00000000000000	
3.26500400000000	-60.13117200000000	763.34858499999996	51.38465900000000	0.06827500000000	0.00000000000000	0.10797500000000	-6.01592900000000	119.28753600000000	17.03940300000000	0.37115800000000	0.00000000000000	-0.07802000000000	0.00000000000000	18.63525900000000	0.00000000000000	0.00000000000000	11.99742500000000	0.00000000000000	
